<svg width="443" height="93" viewBox="0 0 443 93" fill="none" xmlns="http://www.w3.org/2000/svg">
<path d="M148.311 73.7645V14.1617H126.914V0H185.105V14.1617H163.708V73.7645H148.311Z" fill="white"/>
<path d="M182.68 73.7646V20.25H196.841V28.7206C200.194 21.5294 204.518 20.25 209.15 20.25H214.621V34.5882H209.988C203.327 34.5882 197.371 38.4264 197.371 50.1617V73.8087H182.68V73.7646Z" fill="white"/>
<path d="M221.258 54.1764V20.25H235.905V50.8676C235.905 57.1323 238.949 61.7646 245.214 61.7646C251.258 61.7646 255.096 57.1323 255.096 50.9558V20.25H269.743V73.8087H255.802V67.0587C252.272 72.3969 247.022 75.044 240.361 75.044C228.625 74.9999 221.258 66.9263 221.258 54.1764Z" fill="white"/>
<path d="M275.992 58.7206L288.742 55.8088C289.36 59.9558 292.669 63.0882 299.066 63.0882C304.007 63.0882 306.742 61.0588 306.742 58.5441C306.742 56.5147 305.639 55.0147 300.566 53.9117L292.183 52.1029C281.463 49.7647 276.919 44.8235 276.919 35.8235C276.919 26.6471 284.507 19.2354 298.757 19.2354C313.889 19.2354 319.977 28.3236 320.595 34.2794L307.757 37.103C307.139 33.9706 304.845 30.5294 298.448 30.5294C294.389 30.5294 291.389 32.3383 291.389 34.9853C291.389 37.1912 292.889 38.4265 295.536 39.0441L307.757 41.8676C317.066 43.9853 321.389 49.5441 321.389 57.4411C321.389 65.9117 314.639 74.8235 299.154 74.8235C282.125 74.7793 276.566 64.5882 275.992 58.7206Z" fill="white"/>
<path d="M349.549 73.7648C340.064 73.7648 333.711 68.5148 333.711 58.1031V33.0443H324.711V20.2061H333.711V8.29436L348.358 4.05908V20.2061H359.167V33.0443H348.358V55.456C348.358 59.3825 350.387 60.9266 354.314 60.9266H359.961V73.7648H349.549Z" fill="white"/>
<path d="M367.922 73.7639V0.043457H382.569V73.808H367.922V73.7639Z" fill="white"/>
<path d="M426.737 20.25H442.399L420.075 92.9998H404.414L410.59 73.8087H402.516L387.781 20.25H403.443L414.472 61.6764L426.737 20.25Z" fill="white"/>
<path d="M0 32.3375H34.3676V4.89639L61.8087 32.3375L34.3676 59.7345V73.7638H67.6763V32.3375H98.2497V0.043457H0V32.3375Z" fill="white"/>
</svg>
