<svg
      className="absolute inset-0 w-full h-full"
      viewBox="0 0 600 520"
      preserveAspectRatio="xMidYMid slice"
      xmlns="http://www.w3.org/2000/svg"
    >
      <rect width="600" height="520" fill="#0d1f06" />
      <polygon
        points="300,0 600,0 600,520 180,520"
        fill="#173a0e"
        opacity="0.95"
      />
      <polygon points="420,0 600,0 600,260" fill="#2a7a3a" opacity="0.7" />
      <polygon points="490,0 600,0 600,130" fill="#5cd67a" opacity="0.55" />
      <line
        x1="600"
        y1="0"
        x2="280"
        y2="520"
        stroke="#A3FF12"
        strokeWidth="0.7"
        opacity="0.12"
      />
      <line
        x1="600"
        y1="40"
        x2="310"
        y2="520"
        stroke="#A3FF12"
        strokeWidth="0.5"
        opacity="0.08"
      />
      <line
        x1="600"
        y1="80"
        x2="340"
        y2="520"
        stroke="#A3FF12"
        strokeWidth="0.4"
        opacity="0.06"
      />
      <rect
        x="350"
        y="80"
        width="120"
        height="120"
        rx="4"
        fill="none"
        stroke="#A3FF12"
        strokeWidth="1.5"
        opacity="0.22"
        transform="rotate(45 410 140)"
      />
      <rect
        x="400"
        y="200"
        width="80"
        height="80"
        rx="2"
        fill="none"
        stroke="#A3FF12"
        strokeWidth="1"
        opacity="0.18"
        transform="rotate(45 440 240)"
      />
      <rect
        x="460"
        y="310"
        width="50"
        height="50"
        rx="1"
        fill="none"
        stroke="#ffffff"
        strokeWidth="0.8"
        opacity="0.1"
        transform="rotate(45 485 335)"
      />
      <rect
        x="520"
        y="60"
        width="40"
        height="40"
        fill="#A3FF12"
        opacity="0.18"
        transform="rotate(45 540 80)"
      />
      <rect
        x="330"
        y="355"
        width="28"
        height="28"
        fill="#5cd67a"
        opacity="0.2"
        transform="rotate(45 344 369)"
      />
      <rect
        x="560"
        y="380"
        width="18"
        height="18"
        fill="#A3FF12"
        opacity="0.15"
        transform="rotate(45 569 389)"
      />
    </svg>