 <svg
        viewBox="0 0 480 360"
        fill="none"
        xmlns="http://www.w3.org/2000/svg"
        className="w-full h-full"
      >
        <rect width="480" height="360" fill="#071A0F" />
        <line
          x1="60"
          y1="300"
          x2="440"
          y2="300"
          stroke="#A3FF12"
          strokeWidth="1"
          opacity="0.2"
        />
        <line
          x1="60"
          y1="60"
          x2="60"
          y2="300"
          stroke="#A3FF12"
          strokeWidth="1"
          opacity="0.2"
        />
        <line
          x1="60"
          y1="220"
          x2="440"
          y2="220"
          stroke="#A3FF12"
          strokeWidth="0.4"
          opacity="0.08"
        />
        <line
          x1="60"
          y1="140"
          x2="440"
          y2="140"
          stroke="#A3FF12"
          strokeWidth="0.4"
          opacity="0.08"
        />
        <rect
          x="90"
          y="240"
          width="48"
          height="60"
          fill="#A3FF12"
          opacity="0.15"
          rx="2"
        />
        <rect
          x="90"
          y="240"
          width="48"
          height="60"
          stroke="#A3FF12"
          strokeWidth="1"
          opacity="0.3"
          rx="2"
        />
        <rect
          x="170"
          y="190"
          width="48"
          height="110"
          fill="#A3FF12"
          opacity="0.2"
          rx="2"
        />
        <rect
          x="170"
          y="190"
          width="48"
          height="110"
          stroke="#A3FF12"
          strokeWidth="1"
          opacity="0.35"
          rx="2"
        />
        <rect
          x="250"
          y="140"
          width="48"
          height="160"
          fill="#A3FF12"
          opacity="0.28"
          rx="2"
        />
        <rect
          x="250"
          y="140"
          width="48"
          height="160"
          stroke="#A3FF12"
          strokeWidth="1"
          opacity="0.45"
          rx="2"
        />
        <rect
          x="330"
          y="80"
          width="48"
          height="220"
          fill="#A3FF12"
          opacity="0.38"
          rx="2"
        />
        <rect
          x="330"
          y="80"
          width="48"
          height="220"
          stroke="#A3FF12"
          strokeWidth="1.5"
          opacity="0.7"
          rx="2"
        />
        <polyline
          points="114,264 194,210 274,160 354,102"
          stroke="#A3FF12"
          strokeWidth="2"
          opacity="0.8"
          strokeLinecap="round"
          strokeLinejoin="round"
        />
        <circle cx="114" cy="264" r="3.5" fill="#A3FF12" opacity="0.7" />
        <circle cx="194" cy="210" r="3.5" fill="#A3FF12" opacity="0.7" />
        <circle cx="274" cy="160" r="3.5" fill="#A3FF12" opacity="0.7" />
        <circle cx="354" cy="102" r="5" fill="#A3FF12" opacity="1" />
        <polyline
          points="345,96 354,102 345,108"
          stroke="#A3FF12"
          strokeWidth="2"
          strokeLinecap="round"
          strokeLinejoin="round"
        />
        <rect
          x="346"
          y="62"
          width="64"
          height="22"
          rx="4"
          fill="#A3FF12"
          opacity="0.15"
        />
        <text
          x="378"
          y="77"
          textAnchor="middle"
          fill="#A3FF12"
          fontSize="11"
          opacity="0.9"
          fontFamily="monospace"
        >
          +98% CVR
        </text>
      </svg>