  <svg
      className="absolute inset-0 w-full h-full"
      viewBox="0 0 600 520"
      preserveAspectRatio="xMidYMid slice"
      xmlns="http://www.w3.org/2000/svg"
    >
      <rect width="600" height="520" fill="#1a0f00" />
      <line
        x1="300"
        y1="260"
        x2="180"
        y2="130"
        stroke="#f59e0b"
        strokeWidth="1"
        opacity="0.3"
      />
      <line
        x1="300"
        y1="260"
        x2="460"
        y2="140"
        stroke="#f59e0b"
        strokeWidth="1"
        opacity="0.3"
      />
      <line
        x1="300"
        y1="260"
        x2="150"
        y2="310"
        stroke="#f59e0b"
        strokeWidth="1"
        opacity="0.3"
      />
      <line
        x1="300"
        y1="260"
        x2="480"
        y2="320"
        stroke="#f59e0b"
        strokeWidth="1"
        opacity="0.3"
      />
      <line
        x1="300"
        y1="260"
        x2="390"
        y2="400"
        stroke="#f59e0b"
        strokeWidth="1"
        opacity="0.25"
      />
      <line
        x1="300"
        y1="260"
        x2="100"
        y2="180"
        stroke="#f59e0b"
        strokeWidth="0.7"
        opacity="0.18"
      />
      <line
        x1="300"
        y1="260"
        x2="540"
        y2="200"
        stroke="#f59e0b"
        strokeWidth="0.7"
        opacity="0.18"
      />
      <line
        x1="300"
        y1="260"
        x2="200"
        y2="440"
        stroke="#f59e0b"
        strokeWidth="0.7"
        opacity="0.15"
      />
      <line
        x1="180"
        y1="130"
        x2="460"
        y2="140"
        stroke="#fbbf24"
        strokeWidth="0.6"
        opacity="0.12"
      />
      <line
        x1="150"
        y1="310"
        x2="390"
        y2="400"
        stroke="#fbbf24"
        strokeWidth="0.6"
        opacity="0.12"
      />
      <line
        x1="460"
        y1="140"
        x2="480"
        y2="320"
        stroke="#fbbf24"
        strokeWidth="0.6"
        opacity="0.1"
      />
      <line
        x1="100"
        y1="180"
        x2="150"
        y2="310"
        stroke="#fbbf24"
        strokeWidth="0.5"
        opacity="0.1"
      />
      <line
        x1="540"
        y1="200"
        x2="480"
        y2="320"
        stroke="#fbbf24"
        strokeWidth="0.5"
        opacity="0.1"
      />
      <circle
        cx="300"
        cy="260"
        r="60"
        fill="none"
        stroke="#f59e0b"
        strokeWidth="0.8"
        opacity="0.12"
      />
      <circle
        cx="300"
        cy="260"
        r="110"
        fill="none"
        stroke="#f59e0b"
        strokeWidth="0.6"
        opacity="0.08"
      />
      <circle
        cx="300"
        cy="260"
        r="170"
        fill="none"
        stroke="#f59e0b"
        strokeWidth="0.5"
        opacity="0.06"
      />
      <circle cx="300" cy="260" r="22" fill="#f59e0b" opacity="0.15" />
      <circle cx="300" cy="260" r="14" fill="#f59e0b" opacity="0.35" />
      <circle cx="300" cy="260" r="7" fill="#fde68a" opacity="0.9" />
      <circle cx="180" cy="130" r="12" fill="#f59e0b" opacity="0.2" />
      <circle cx="180" cy="130" r="7" fill="#f59e0b" opacity="0.5" />
      <circle cx="180" cy="130" r="3" fill="#fde68a" opacity="0.85" />
      <circle cx="460" cy="140" r="12" fill="#f59e0b" opacity="0.2" />
      <circle cx="460" cy="140" r="7" fill="#f59e0b" opacity="0.5" />
      <circle cx="460" cy="140" r="3" fill="#fde68a" opacity="0.85" />
      <circle cx="150" cy="310" r="10" fill="#f59e0b" opacity="0.18" />
      <circle cx="150" cy="310" r="6" fill="#f59e0b" opacity="0.45" />
      <circle cx="150" cy="310" r="2.5" fill="#fde68a" opacity="0.8" />
      <circle cx="480" cy="320" r="10" fill="#f59e0b" opacity="0.18" />
      <circle cx="480" cy="320" r="6" fill="#f59e0b" opacity="0.45" />
      <circle cx="480" cy="320" r="2.5" fill="#fde68a" opacity="0.8" />
      <circle cx="390" cy="400" r="9" fill="#f59e0b" opacity="0.15" />
      <circle cx="390" cy="400" r="5" fill="#f59e0b" opacity="0.4" />
      <circle cx="390" cy="400" r="2" fill="#fde68a" opacity="0.75" />
      <circle cx="100" cy="180" r="5" fill="#fbbf24" opacity="0.3" />
      <circle cx="540" cy="200" r="6" fill="#fbbf24" opacity="0.28" />
      <circle cx="200" cy="440" r="5" fill="#fbbf24" opacity="0.25" />
    </svg>