   <svg
      className="absolute inset-0 w-full h-full"
      viewBox="0 0 600 520"
      preserveAspectRatio="xMidYMid slice"
      xmlns="http://www.w3.org/2000/svg"
    >
      <rect width="600" height="520" fill="#04111a" />
      <polygon
        points="330,130 420,80 510,130 420,180"
        fill="#22d3ee"
        opacity="0.28"
      />
      <polygon
        points="330,130 420,180 420,290 330,240"
        fill="#22d3ee"
        opacity="0.13"
      />
      <polygon
        points="420,180 510,130 510,240 420,290"
        fill="#22d3ee"
        opacity="0.18"
      />
      <polygon
        points="330,130 420,80 510,130 420,180"
        fill="none"
        stroke="#22d3ee"
        strokeWidth="1"
        opacity="0.35"
      />
      <polygon
        points="330,130 420,180 420,290 330,240"
        fill="none"
        stroke="#22d3ee"
        strokeWidth="1"
        opacity="0.25"
      />
      <polygon
        points="420,180 510,130 510,240 420,290"
        fill="none"
        stroke="#22d3ee"
        strokeWidth="1"
        opacity="0.3"
      />
      <line
        x1="330"
        y1="130"
        x2="330"
        y2="240"
        stroke="#22d3ee"
        strokeWidth="1"
        opacity="0.25"
      />
      <line
        x1="510"
        y1="130"
        x2="510"
        y2="240"
        stroke="#22d3ee"
        strokeWidth="1"
        opacity="0.25"
      />
      <line
        x1="420"
        y1="290"
        x2="330"
        y2="240"
        stroke="#22d3ee"
        strokeWidth="1"
        opacity="0.25"
      />
      <line
        x1="420"
        y1="290"
        x2="510"
        y2="240"
        stroke="#22d3ee"
        strokeWidth="1"
        opacity="0.25"
      />
      <polygon
        points="430,280 500,240 570,280 500,320"
        fill="#22d3ee"
        opacity="0.22"
      />
      <polygon
        points="430,280 500,320 500,410 430,370"
        fill="#22d3ee"
        opacity="0.1"
      />
      <polygon
        points="500,320 570,280 570,370 500,410"
        fill="#22d3ee"
        opacity="0.15"
      />
      <polygon
        points="430,280 500,240 570,280 500,320"
        fill="none"
        stroke="#22d3ee"
        strokeWidth="0.9"
        opacity="0.3"
      />
      <line
        x1="430"
        y1="280"
        x2="430"
        y2="370"
        stroke="#22d3ee"
        strokeWidth="0.9"
        opacity="0.2"
      />
      <line
        x1="570"
        y1="280"
        x2="570"
        y2="370"
        stroke="#22d3ee"
        strokeWidth="0.9"
        opacity="0.2"
      />
      <line
        x1="500"
        y1="410"
        x2="430"
        y2="370"
        stroke="#22d3ee"
        strokeWidth="0.9"
        opacity="0.2"
      />
      <line
        x1="500"
        y1="410"
        x2="570"
        y2="370"
        stroke="#22d3ee"
        strokeWidth="0.9"
        opacity="0.2"
      />
      <line
        x1="500"
        y1="320"
        x2="500"
        y2="410"
        stroke="#22d3ee"
        strokeWidth="0.9"
        opacity="0.2"
      />
      <polygon
        points="530,160 580,132 600,143 550,171"
        fill="#22d3ee"
        opacity="0.18"
      />
      <polygon
        points="530,160 550,171 550,231 530,220"
        fill="#22d3ee"
        opacity="0.09"
      />
      <polygon
        points="550,171 600,143 600,203 550,231"
        fill="#22d3ee"
        opacity="0.13"
      />
      <polygon
        points="530,160 580,132 600,143 550,171"
        fill="none"
        stroke="#22d3ee"
        strokeWidth="0.8"
        opacity="0.25"
      />
      <line
        x1="530"
        y1="160"
        x2="530"
        y2="220"
        stroke="#22d3ee"
        strokeWidth="0.8"
        opacity="0.18"
      />
      <line
        x1="550"
        y1="231"
        x2="530"
        y2="220"
        stroke="#22d3ee"
        strokeWidth="0.8"
        opacity="0.18"
      />
      <line
        x1="550"
        y1="231"
        x2="600"
        y2="203"
        stroke="#22d3ee"
        strokeWidth="0.8"
        opacity="0.18"
      />
      <ellipse
        cx="470"
        cy="260"
        rx="160"
        ry="100"
        fill="#22d3ee"
        opacity="0.04"
      />
      <circle cx="350" cy="360" r="2.5" fill="#22d3ee" opacity="0.2" />
      <circle cx="310" cy="180" r="2" fill="#22d3ee" opacity="0.15" />
      <circle cx="390" cy="440" r="3" fill="#22d3ee" opacity="0.12" />
    </svg>
